#!OML:ASF H:\Terrain\Patient Classification 1\Terrain2\Thursday\justin.ASF
:FULLY-SPECIFIED
:DEGREES
1816
root -13.5391 17.6273 9.19448 180.606 -189.807 -545.401
lowerback 6.91817 0.261233 4.88082
upperback 1.71208 0.80186 3.94711
thorax -2.10055 0.387937 1.26828
lowerneck -13.5001 0.932494 -7.06518
upperneck 38.2383 3.68883 0.491529
head 15.6595 0.672614 2.10864
rclavicle -1.0635e-014 -2.38542e-015
rhumerus -24.6887 -10.9041 -76.4389
rradius 40.165
rwrist -17.2315
rhand -22.6745 13.0823
rfingers 7.12502
rthumb 3.75744 -16.8643
lclavicle -1.0635e-014 -2.38542e-015
lhumerus -35.2324 3.28201 83.3335
lradius 39.4792
lwrist 4.27982
lhand -16.7636 20.6242
lfingers 7.12502
lthumb 9.46341 50.3918
rfemur -12.1102 -9.1369 29.1974
rtibia 29.5873
rfoot -16.6657 5.08767
rtoes 9.25573
lfemur -15.2776 3.35792 -14.568
ltibia 31.9312
lfoot -14.2348 1.23153
ltoes -0.616328
1817
root -13.5278 17.6273 9.22121 180.631 -190.022 -545.198
lowerback 6.95833 0.304104 4.78239
upperback 1.70609 0.852326 3.83328
thorax -2.1282 0.412825 1.20062
lowerneck -13.8426 0.883733 -7.13085
upperneck 38.3477 3.66969 0.523974
head 15.7973 0.652421 2.14076
rclavicle -7.05686e-015 -1.90833e-014
rhumerus -24.8874 -10.785 -76.3956
rradius 39.9286
rwrist -17.3553
rhand -22.3702 13.5592
rfingers 7.12502
rthumb 4.05128 -16.382
lclavicle -7.05686e-015 -1.90833e-014
lhumerus -35.1213 3.31816 83.3146
lradius 39.193
lwrist 4.26398
lhand -16.4911 20.961
lfingers 7.12502
lthumb 9.72633 50.7164
rfemur -12.0325 -9.32119 28.9816
rtibia 29.7011
rfoot -16.8026 4.75002
rtoes 7.58441
lfemur -15.1713 3.3852 -14.8429
ltibia 31.9123
lfoot -14.3113 1.08125
ltoes -1.64132
1818
root -13.5108 17.6272 9.2486 180.642 -190.333 -544.79
lowerback 6.9893 0.290637 4.56874
upperback 1.70148 0.816522 3.64244
thorax -2.15101 0.395191 1.12501
lowerneck -13.952 0.87296 -7.17982
upperneck 38.3462 3.67579 0.547711
head 15.8214 0.651085 2.16305
rclavicle -1.09332e-015 3.10104e-014
rhumerus -25.0593 -10.8022 -76.3957
rradius 39.5338
rwrist -17.1531
rhand -22.3122 14.0149
rfingers 7.12502
rthumb 4.10727 -15.9252
lclavicle -1.09332e-015 3.10104e-014
lhumerus -35.1104 3.58582 83.195
lradius 38.9487
lwrist 4.23413
lhand -16.4603 20.8425
lfingers 7.12502
lthumb 9.7561 50.5965
rfemur -11.9439 -9.64473 28.494
rtibia 29.8959
rfoot -17.0806 4.42549
rtoes 6.09311
lfemur -14.9615 3.39812 -15.379
ltibia 31.7966
lfoot -14.2383 0.945378
ltoes -3.88947
1819
root -13.4896 17.6301 9.27822 180.689 -190.637 -544.113
lowerback 6.97727 0.338583 4.17385
upperback 1.72026 0.841161 3.32369
thorax -2.12559 0.40898 1.01355
lowerneck -13.7918 0.842455 -7.05562
upperneck 38.174 3.60265 0.466044
head 15.7035 0.637371 2.08737
rclavicle 3.12092e-014 1.66979e-014
rhumerus -25.3007 -11.293 -76.3726
rradius 39.2177
rwrist -16.7043
rhand -22.2261 14.3021
rfingers 7.12502
rthumb 4.19039 -15.6364
lclavicle 3.12092e-014 1.66979e-014
lhumerus -34.9943 3.78206 83.0586
lradius 38.525
lwrist 3.96115
lhand -15.9746 20.2356
lfingers 7.12502
lthumb 10.2246 49.9671
rfemur -11.8366 -10.174 27.6532
rtibia 30.1331
rfoot -17.3358 4.38689
rtoes 5.25217
lfemur -14.6997 3.22347 -16.1905
ltibia 31.6626
lfoot -14.1797 0.693377
ltoes -4.12886
1820
root -13.4835 17.629 9.30324 180.65 -190.769 -543.948
lowerback 7.07039 0.464836 3.97708
upperback 1.728 0.998307 3.23932
thorax -2.16948 0.487403 1.02188
lowerneck -13.776 0.803047 -6.82798
upperneck 38.1283 3.56344 0.239705
head 15.6908 0.626264 1.94329
rclavicle 8.84592e-015 7.95139e-015
rhumerus -25.5789 -11.8296 -76.2545
rradius 38.8804
rwrist -16.2584
rhand -21.9979 14.8006
rfingers 7.12502
rthumb 4.41084 -15.1334
lclavicle 8.84592e-015 7.95139e-015
lhumerus -34.8964 3.86447 83.0512
lradius 38.2541
lwrist 3.66533
lhand -15.0764 20.408
lfingers 7.12502
lthumb 11.0911 50.0949
rfemur -11.7862 -9.89232 27.5224
rtibia 30.4047
rfoot -17.5422 3.64198
rtoes 4.18966
lfemur -14.4813 2.98971 -16.3247
ltibia 31.5264
lfoot -14.1462 0.454414
ltoes -2.94263
1821
root -13.4857 17.6217 9.3288 180.544 -190.935 -544.237
lowerback 7.10323 0.55127 3.99719
upperback 1.75348 1.12062 3.40531
thorax -2.16314 0.548995 1.17144
lowerneck -14.0494 0.761114 -6.90182
upperneck 38.3861 3.56842 0.252789
head 15.8879 0.608889 1.97402
rclavicle 1.48095e-014 7.95139e-015
rhumerus -25.8495 -11.7089 -76.1296
rradius 38.6208
rwrist -16.0581
rhand -22.1784 14.8988
rfingers 7.12502
rthumb 4.23653 -15.0389
lclavicle 1.48095e-014 7.95139e-015
lhumerus -34.8869 3.8505 83.2898
lradius 38.312
lwrist 3.92914
lhand -15.6917 21.1081
lfingers 7.12502
lthumb 10.4976 50.826
rfemur -11.785 -9.11443 27.9583
rtibia 30.6808
rfoot -17.7033 2.50554
rtoes 4.57515
lfemur -14.3216 2.91168 -15.9321
ltibia 31.4132
lfoot -14.2734 0.138062
ltoes -2.54823
1822
root -13.4729 17.6168 9.35408 180.643 -191.426 -543.893
lowerback 6.90836 0.554941 3.64304
upperback 1.80571 1.08488 3.37878
thorax -2.00722 0.534834 1.34729
lowerneck -14.2065 0.756538 -7.16065
upperneck 38.5164 3.61531 0.410327
head 15.9821 0.609039 2.10223
rclavicle -5.86415e-015 2.38542e-015
rhumerus -26.222 -11.679 -75.9232
rradius 38.7284
rwrist -15.7317
rhand -22.3371 14.9646
rfingers 7.12502
rthumb 4.08325 -14.976
lclavicle -5.86415e-015 2.38542e-015
lhumerus -34.8782 3.95565 83.5585
lradius 38.4309
lwrist 4.36582
lhand -16.8637 20.8384
lfingers 7.12502
lthumb 9.36685 50.6103
rfemur -11.8308 -9.14475 27.5679
rtibia 30.9303
rfoot -17.8957 2.01442
rtoes 5.51309
lfemur -14.2752 2.85106 -16.3638
ltibia 31.3596
lfoot -14.5313 -0.229544
ltoes -3.90198
1823
root -13.4572 17.6156 9.37722 180.738 -191.991 -543.46
lowerback 6.76805 0.524226 3.3134
upperback 1.85726 1.00827 3.28063
thorax -1.88016 0.499203 1.43821
lowerneck -14.0486 0.732567 -7.29562
upperneck 38.3404 3.58599 0.451649
head 15.8518 0.594347 2.13243
rclavicle -4.77083e-015 1.03368e-014
rhumerus -26.5507 -11.9564 -75.6902
rradius 38.75
rwrist -15.4027
rhand -22.1971 15.5973
rfingers 7.12502
rthumb 4.21847 -14.3407
lclavicle -4.77083e-015 1.03368e-014
lhumerus -34.9064 4.25801 83.6434
lradius 38.446
lwrist 4.70907
lhand -17.2236 20.0085
lfingers 7.12502
lthumb 9.0196 49.7957
rfemur -11.825 -9.40227 27.0653
rtibia 31.1542
rfoot -18.2509 1.47711
rtoes 4.62073
lfemur -14.2336 2.79875 -16.8993
ltibia 31.3415
lfoot -14.4939 -0.621811
ltoes -5.54953
1824
root -13.4444 17.6102 9.4052 180.628 -192.432 -543.634
lowerback 6.79035 0.511845 3.5637
upperback 1.90218 1.00964 3.3202
thorax -1.84241 0.500229 1.33895
lowerneck -14.0551 0.624575 -7.4072
upperneck 38.3083 3.44607 0.494122
head 15.8422 0.528668 2.14706
rclavicle 4.09496e-014 4.21423e-014
rhumerus -26.7528 -12.2576 -75.4873
rradius 38.5184
rwrist -15.1203
rhand -22.0627 15.3875
rfingers 7.12502
rthumb 4.34823 -14.5478
lclavicle 4.09496e-014 4.21423e-014
lhumerus -34.8959 4.41602 83.707
lradius 38.4167
lwrist 4.88359
lhand -17.4596 19.8854
lfingers 7.12502
lthumb 8.79188 49.6823
rfemur -11.731 -9.54909 27.2543
rtibia 31.396
rfoot -18.6011 0.7408
rtoes 2.68744
lfemur -14.0849 2.6616 -16.7053
ltibia 31.2877
lfoot -14.4853 -1.04678
ltoes -5.76463
1825
root -13.4259 17.5979 9.4368 180.429 -192.888 -543.993
lowerback 6.74869 0.488536 4.05741
upperback 1.96145 1.00881 3.38337
thorax -1.75015 0.500792 1.12904
lowerneck -14.1594 0.609971 -7.28968
upperneck 38.3777 3.52124 0.215737
head 15.9135 0.536784 2.02307
rclavicle 2.16675e-014 1.74931e-014
rhumerus -27.0383 -12.7784 -75.2173
rradius 38.4607
rwrist -14.8639
rhand -21.4706 14.2868
rfingers 7.12502
rthumb 4.91998 -15.6361
lclavicle 2.16675e-014 1.74931e-014
lhumerus -34.8001 4.42612 83.7758
lradius 38.2318
lwrist 4.72805
lhand -16.8881 20.4717
lfingers 7.12502
lthumb 9.34333 50.2447
rfemur -11.5575 -9.80508 27.5718
rtibia 31.614
rfoot -18.6709 0.330735
rtoes 2.12791
lfemur -13.8799 2.46911 -16.3189
ltibia 31.2412
lfoot -14.7469 -1.61144
ltoes -4.11632
1826
root -13.4058 17.589 9.47065 180.269 -193.438 -543.978
lowerback 6.59261 0.45669 4.14555
upperback 2.02639 0.958751 3.36658
thorax -1.59479 0.478556 1.06821
lowerneck -14.0196 0.733247 -7.08999
upperneck 38.2131 3.80943 -0.234482
head 15.8043 0.635032 1.83723
rclavicle -4.22417e-014 1.59028e-015
rhumerus -27.5509 -13.1485 -74.9596
rradius 38.5101
rwrist -14.531
rhand -21.1427 13.4228
rfingers 7.12502
rthumb 5.23659 -16.4925
lclavicle -4.22417e-014 1.59028e-015
lhumerus -34.803 4.35491 83.8712
lradius 38.0493
lwrist 4.88362
lhand -16.0754 20.4729
lfingers 7.12502
lthumb 10.1274 50.2092
rfemur -11.3332 -10.1746 27.4163
rtibia 31.7536
rfoot -18.6229 0.320661
rtoes 3.61312
lfemur -13.6532 2.52717 -16.3575
ltibia 31.2842
lfoot -14.9198 -2.42355
ltoes -3.26551
1827
root -13.3961 17.5896 9.50187 180.201 -193.971 -543.738
lowerback 6.46484 0.466847 3.85921
upperback 2.10752 0.941295 3.33975
thorax -1.44462 0.472528 1.20335
lowerneck -13.9014 0.773175 -7.03376
upperneck 38.3476 3.78282 -0.0422355
head 15.8365 0.659296 1.90731
rclavicle -1.36167e-014 -2.3059e-014
rhumerus -28.0056 -13.2201 -74.7891
rradius 38.3457
rwrist -14.3207
rhand -21.6954 13.5973
rfingers 7.12502
rthumb 4.70294 -16.3305
lclavicle -1.36167e-014 -2.3059e-014
lhumerus -34.7952 4.16297 84.0961
lradius 38.0235
lwrist 5.51379
lhand -16.9697 19.5629
lfingers 7.12502
lthumb 9.26456 49.3393
rfemur -11.2127 -10.2835 27.0969
rtibia 31.8744
rfoot -18.7046 0.0688318
rtoes 4.86321
lfemur -13.5152 2.70661 -16.6123
ltibia 31.3703
lfoot -14.8895 -3.13025
ltoes -4.43055
1828
root -13.3986 17.5883 9.52258 180.081 -194.574 -543.942
lowerback 6.45019 0.475704 3.92254
upperback 2.16488 0.956503 3.44654
thorax -1.37789 0.481705 1.2776
lowerneck -14.0442 0.771782 -7.34976
upperneck 38.5413 3.76585 0.350443
head 15.9504 0.655928 2.13759
rclavicle -1.56046e-014 2.14687e-014
rhumerus -28.2552 -13.5032 -74.5329
rradius 37.9207
rwrist -14.4958
rhand -22.0816 14.5447
rfingers 7.12502
rthumb 4.32999 -15.3911
lclavicle -1.56046e-014 2.14687e-014
lhumerus -34.6641 4.00497 84.2991
lradius 38.0481
lwrist 5.72082
lhand -17.624 19.5478
lfingers 7.12502
lthumb 8.6332 49.3513
rfemur -11.1995 -9.8366 27.4124
rtibia 32.0422
rfoot -18.9166 -1.00978
rtoes 4.27114
lfemur -13.5319 2.88348 -16.3373
ltibia 31.4314
lfoot -14.9015 -3.83357
ltoes -5.53429
1829
root -13.3921 17.5812 9.54201 179.936 -195.347 -544.071
lowerback 6.49167 0.442797 4.06961
upperback 2.15717 0.927582 3.50903
thorax -1.40763 0.467442 1.26176
lowerneck -14.3215 0.731376 -7.94414
upperneck 39.0545 3.67987 1.09191
head 16.2505 0.617989 2.57174
rclavicle -4.19436e-014 -1.11319e-014
rhumerus -28.6813 -13.936 -74.1677
rradius 37.676
rwrist -14.3276
rhand -22.2416 14.3707
rfingers 7.12502
rthumb 4.17546 -15.5682
lclavicle -4.19436e-014 -1.11319e-014
lhumerus -34.4956 3.92857 84.4285
lradius 37.8505
lwrist 5.30295
lhand -16.9542 20.1139
lfingers 7.12502
lthumb 9.27954 49.8897
rfemur -11.1185 -9.53933 27.5855
rtibia 32.2264
rfoot -19.0023 -2.05404
rtoes 3.13951
lfemur -13.5271 2.95931 -16.1855
ltibia 31.4821
lfoot -15.0079 -4.62043
ltoes -5.81511
1830
root -13.3733 17.5725 9.56885 179.921 -196.024 -543.769
lowerback 6.44285 0.411861 3.88054
upperback 2.12799 0.872426 3.46818
thorax -1.41345 0.439722 1.32957
lowerneck -14.0204 0.739099 -7.57782
upperneck 39.0589 3.66092 0.818321
head 16.1959 0.633887 2.37951
rclavicle -3.27995e-015 -3.10104e-014
rhumerus -29.2043 -14.0737 -73.8519
rradius 37.5397
rwrist -14.1666
rhand -22.496 13.7497
rfingers 7.12502
rthumb 3.92978 -16.1938
lclavicle -3.27995e-015 -3.10104e-014
lhumerus -34.2979 4.29348 84.4215
lradius 37.374
lwrist 4.01197
lhand -15.5468 20.6238
lfingers 7.12502
lthumb 10.6373 50.3345
rfemur -10.9707 -9.46896 27.2141
rtibia 32.3338
rfoot -18.9714 -2.77189
rtoes 2.11388
lfemur -13.5255 2.84899 -16.5465
ltibia 31.6008
lfoot -15.313 -5.22639
ltoes -4.72066
